<?xml version="1.0" encoding="UTF-8"?>
<!-- Generator: visioncortex VTracer 0.6.4 -->
<svg version="1.1" xmlns="http://www.w3.org/2000/svg" width="945" height="202">
<path d="M0 0 C1.81 1.55 3.6 3.11 5.38 4.69 C6.16 5.38 6.94 6.06 7.75 6.77 C25.71 23.55 33.4 47.06 34.48 71.06 C34.64 76.76 34.61 82.46 34.57 88.16 C34.57 89.95 34.56 91.74 34.56 93.54 C34.55 98.18 34.53 102.83 34.51 107.47 C34.49 112.24 34.48 117.01 34.47 121.77 C34.45 131.08 34.42 140.38 34.38 149.69 C30.75 149.36 27.12 149.03 23.38 148.69 C23.37 147.62 23.36 146.54 23.36 145.44 C23.3 135.29 23.23 125.14 23.14 114.99 C23.09 109.77 23.06 104.56 23.03 99.34 C23 94.3 22.96 89.25 22.91 84.21 C22.9 82.29 22.88 80.38 22.88 78.46 C22.79 53.51 17.24 32.95 -0.5 14.31 C-15.81 -0.26 -34.47 -6.5 -55.19 -6.69 C-56.75 -6.71 -56.75 -6.71 -58.34 -6.73 C-68.82 -6.67 -78.4 -4.51 -87.69 0.38 C-88.36 0.72 -89.04 1.07 -89.74 1.43 C-108.25 11.24 -120.2 25.82 -127.84 45.11 C-134.24 66 -131.64 87.87 -121.76 107.11 C-118.9 112.44 -115.69 117.2 -111.62 121.69 C-111.06 122.35 -110.49 123.01 -109.9 123.69 C-97.18 137.52 -78.22 145.77 -59.64 146.94 C-45.74 147.37 -45.74 147.37 -32.62 143.69 C-27.37 143.3 -22.69 144.47 -17.62 145.69 C-15.96 146.03 -14.29 146.36 -12.62 146.69 C-19.38 154.43 -32.87 156.74 -42.62 157.69 C-61.3 158.9 -77.86 157.56 -94.62 148.69 C-95.59 148.2 -96.55 147.71 -97.54 147.2 C-105.72 142.77 -112.09 137.21 -118.62 130.69 C-119.74 129.59 -119.74 129.59 -120.88 128.47 C-137.1 111.46 -143.26 88.32 -142.74 65.36 C-142.68 63.54 -142.68 63.54 -142.62 61.69 C-142.61 60.79 -142.59 59.9 -142.57 58.98 C-141.67 42.93 -133.01 25.61 -122.62 13.69 C-121.96 12.88 -121.29 12.07 -120.61 11.23 C-90.83 -23.75 -35.79 -28.51 0 0 Z " fill="#D9F700" transform="translate(154.625,27.3125)"/>
<path d="M0 0 C9.27 5.21 14.85 12.97 17.95 23 C18.46 26.57 18.51 30.06 18.48 33.66 C18.48 35.13 18.48 35.13 18.49 36.63 C18.49 38.69 18.48 40.75 18.47 42.81 C18.45 45.93 18.47 49.05 18.49 52.17 C18.51 65.64 17.94 77.88 7.95 88 C0.63 94.08 -6.57 97 -16.05 97 C-16.05 90.4 -16.05 83.8 -16.05 77 C-13.41 76.01 -10.77 75.02 -8.05 74 C-4.67 70.71 -3.31 67.52 -2.05 63 C-2.67 63.22 -3.29 63.44 -3.93 63.66 C-13.61 66.84 -21.55 66.98 -31.05 63 C-39.93 58.28 -46.46 51.42 -50.24 42.07 C-52.48 33.39 -52.19 23.04 -48.05 15 C-37.6 -2.13 -18.31 -8.88 0 0 Z " fill="#FCFCFC" transform="translate(412.0546875,65.99609375)"/>
<path d="M0 0 C2.89 1.34 2.89 1.34 5.12 0.04 C5.89 -0.43 6.65 -0.89 7.44 -1.38 C14.05 -5.38 20.34 -5.93 28 -5 C36.91 -2.06 43.8 2.83 48.15 11.22 C50.87 17.59 51.54 22.94 51.39 29.82 C51.38 30.8 51.38 31.79 51.37 32.8 C51.35 35.91 51.3 39.02 51.25 42.12 C51.23 44.25 51.21 46.37 51.2 48.49 C51.15 53.66 51.08 58.83 51 64 C44.4 64 37.8 64 31 64 C30.97 61.03 30.95 58.05 30.92 54.99 C30.88 52.1 30.84 49.22 30.79 46.33 C30.76 44.33 30.74 42.32 30.73 40.32 C30.71 37.44 30.66 34.56 30.61 31.68 C30.61 30.78 30.61 29.89 30.61 28.97 C30.51 24.86 30.32 22.54 28.18 18.95 C25.18 16.27 22.98 16.07 19 16 C15.6 17.1 15.05 17.92 13 21 C12.67 23.04 12.67 23.04 12.68 25.29 C12.66 26.15 12.64 27.01 12.62 27.9 C12.6 29.28 12.6 29.28 12.59 30.7 C12.57 31.65 12.55 32.6 12.53 33.58 C12.47 36.61 12.42 39.65 12.38 42.69 C12.34 44.75 12.3 46.8 12.26 48.86 C12.16 53.91 12.08 58.95 12 64 C5.4 64 -1.2 64 -8 64 C-8.03 60.94 -8.05 57.88 -8.08 54.73 C-8.12 51.77 -8.16 48.81 -8.21 45.85 C-8.24 43.79 -8.26 41.73 -8.27 39.67 C-8.29 36.71 -8.34 33.76 -8.39 30.8 C-8.39 29.88 -8.39 28.96 -8.39 28.01 C-8.48 22.89 -8.48 22.89 -10.82 18.45 C-13.95 16.37 -16.25 16 -20 16 C-22.8 17.77 -24.52 19.03 -26 22 C-26.12 23.36 -26.18 24.72 -26.21 26.08 C-26.23 26.92 -26.25 27.76 -26.27 28.63 C-26.29 29.99 -26.29 29.99 -26.32 31.38 C-26.34 32.31 -26.36 33.24 -26.38 34.2 C-26.44 37.17 -26.5 40.15 -26.56 43.12 C-26.61 45.14 -26.65 47.15 -26.69 49.17 C-26.8 54.11 -26.9 59.06 -27 64 C-33.6 64 -40.2 64 -47 64 C-47.09 57.77 -47.17 51.55 -47.22 45.32 C-47.24 43.21 -47.27 41.09 -47.3 38.98 C-47.35 35.93 -47.37 32.87 -47.39 29.82 C-47.41 28.89 -47.43 27.95 -47.45 26.99 C-47.46 17.71 -44.64 9.62 -38.17 2.83 C-25.65 -7.73 -13.99 -6.68 0 0 Z " fill="#FDFDFD" transform="translate(628,67)"/>
<path d="M0 0 C3.66 3 6.97 6.27 10.25 9.69 C10.95 10.4 11.64 11.12 12.36 11.85 C16.55 16.36 19.53 21.19 22.25 26.69 C22.61 27.37 22.97 28.06 23.34 28.77 C29.76 41.86 29.66 55.66 29.54 69.87 C29.53 71.78 29.53 73.68 29.53 75.59 C29.52 80.57 29.49 85.54 29.45 90.52 C29.42 95.61 29.41 100.71 29.39 105.8 C29.36 115.76 29.31 125.73 29.25 135.69 C25.95 135.36 22.65 135.03 19.25 134.69 C19.24 133.18 19.24 133.18 19.24 131.64 C19.2 122.11 19.14 112.58 19.06 103.05 C19.02 98.15 18.99 93.25 18.98 88.36 C18.96 83.62 18.93 78.88 18.88 74.14 C18.86 72.34 18.86 70.55 18.86 68.75 C18.84 52.89 17.21 38.29 8.25 24.69 C7.75 23.91 7.24 23.13 6.73 22.33 C-0.33 12.36 -10.55 6.1 -21.75 1.69 C-22.56 1.34 -23.36 0.98 -24.19 0.62 C-36.96 -4.04 -54.54 -2.67 -66.75 2.69 C-68.14 3.29 -68.14 3.29 -69.56 3.9 C-84.36 11.15 -95.34 24.18 -100.75 39.69 C-102.65 45.97 -103.06 51.65 -103 58.19 C-103.01 59.09 -103.02 59.98 -103.03 60.91 C-102.99 74.52 -97.87 86.86 -89.75 97.69 C-89.15 98.5 -88.54 99.32 -87.92 100.16 C-77.4 112.44 -61.69 118.7 -45.9 120.01 C-36.27 120.41 -27.9 118.63 -18.75 115.69 C-18.75 119.32 -18.75 122.95 -18.75 126.69 C-32.78 133.01 -50.69 132.71 -65.27 128.07 C-77.38 123.27 -86.67 117 -95.75 107.69 C-96.43 107.02 -97.11 106.35 -97.8 105.66 C-111.22 91.57 -115.33 72.46 -115.03 53.65 C-114.38 37.08 -106.69 21.86 -95.75 9.69 C-95.23 9.08 -94.72 8.47 -94.18 7.84 C-70.75 -17.95 -27.49 -20.58 0 0 Z " fill="#02F915" transform="translate(142.75244140625,38.31201171875)"/>
<path d="M0 0 C6.81 5.64 10.43 12.57 13.18 20.8 C14.12 32.69 12.72 40.97 4.93 50.11 C-0.8 56.09 -6.56 60.26 -14.82 61.8 C-18.45 61.8 -22.08 61.8 -25.82 61.8 C-25.82 53.55 -25.82 45.3 -25.82 36.8 C-23.18 36.47 -20.54 36.14 -17.82 35.8 C-14.57 33.04 -13.92 31.46 -13.32 27.24 C-13.6 23.83 -13.6 23.83 -15.26 21.36 C-18.52 19.38 -20.95 19.28 -24.7 19.17 C-27.03 19.63 -27.03 19.63 -28.43 21.95 C-30.04 25.24 -30.22 27.41 -30.26 31.06 C-30.28 32.3 -30.3 33.54 -30.32 34.82 C-30.32 36.16 -30.33 37.51 -30.34 38.85 C-30.35 40.23 -30.37 41.62 -30.39 43 C-30.44 46.63 -30.47 50.26 -30.49 53.88 C-30.52 57.59 -30.57 61.3 -30.62 65.01 C-30.7 72.27 -30.77 79.54 -30.82 86.8 C-39.07 86.8 -47.32 86.8 -55.82 86.8 C-55.91 78.24 -55.99 69.68 -56.03 61.11 C-56.05 57.13 -56.08 53.16 -56.13 49.18 C-56.17 45.34 -56.19 41.49 -56.2 37.65 C-56.21 36.19 -56.23 34.73 -56.25 33.27 C-56.43 20.25 -54.34 11.54 -45.19 2 C-31.92 -10.35 -14.44 -10.05 0 0 Z " fill="#FDFDFD" transform="translate(808.82421875,70.19921875)"/>
<path d="M0 0 C4.06 2.93 7.22 6.23 10.19 10.25 C10.76 11.01 11.34 11.78 11.94 12.56 C15.69 20.62 16.8 30.88 14.24 39.4 C9.74 50.86 3.42 56.08 -7.06 62.12 C-10.81 63.25 -10.81 63.25 -23.81 63.25 C-23.81 54.67 -23.81 46.09 -23.81 37.25 C-21.17 37.25 -18.53 37.25 -15.81 37.25 C-14.82 36.92 -13.83 36.59 -12.81 36.25 C-11.04 32.06 -11.13 27.01 -12.75 22.81 C-15.66 20.61 -18.09 20.81 -21.66 20.82 C-24.28 21.34 -25.16 22.18 -26.81 24.25 C-28.17 26.96 -27.97 29.13 -28.02 32.17 C-28.04 33.41 -28.06 34.65 -28.08 35.93 C-28.1 37.29 -28.11 38.65 -28.13 40.01 C-28.15 41.4 -28.17 42.78 -28.19 44.17 C-28.25 47.82 -28.3 51.48 -28.34 55.13 C-28.39 58.86 -28.45 62.58 -28.51 66.31 C-28.61 73.62 -28.71 80.94 -28.81 88.25 C-37.06 88.25 -45.31 88.25 -53.81 88.25 C-53.9 79.83 -53.98 71.42 -54.02 63 C-54.04 59.1 -54.07 55.19 -54.11 51.28 C-54.16 47.5 -54.18 43.72 -54.19 39.94 C-54.2 38.5 -54.21 37.07 -54.24 35.64 C-54.42 22.66 -52.46 12.96 -43.25 3.41 C-39.73 0.29 -36.11 -1.87 -31.81 -3.75 C-30.84 -4.18 -29.87 -4.62 -28.88 -5.06 C-18.87 -7.31 -8.67 -5.44 0 0 Z " fill="#FDFDFD" transform="translate(916.8125,68.75)"/>
<path d="M0 0 C8.03 7.54 14.14 17.62 16.31 28.44 C16.48 29.14 16.66 29.84 16.83 30.57 C17.45 34.23 17.44 37.83 17.43 41.53 C17.43 42.33 17.43 43.13 17.43 43.96 C17.43 46.59 17.42 49.23 17.41 51.86 C17.41 53.69 17.41 55.53 17.41 57.36 C17.4 62.17 17.39 66.98 17.38 71.79 C17.37 76.71 17.37 81.62 17.36 86.53 C17.35 96.17 17.33 105.8 17.31 115.44 C14.01 115.11 10.71 114.78 7.31 114.44 C7.31 112.97 7.31 112.97 7.3 111.48 C7.26 102.24 7.21 93.01 7.13 83.77 C7.09 79.02 7.06 74.27 7.04 69.52 C7.03 64.93 6.99 60.34 6.94 55.75 C6.93 54.01 6.92 52.26 6.92 50.52 C6.91 35.49 4.81 21.9 -5.65 10.25 C-16.93 -0.52 -28.64 -3.15 -43.61 -2.91 C-55.68 -2.37 -64.94 4.25 -72.94 12.81 C-76.3 16.73 -78.81 20.63 -80.69 25.44 C-81.04 26.31 -81.4 27.19 -81.77 28.09 C-82.95 32.38 -83.02 36.33 -83 40.75 C-83.02 41.55 -83.03 42.36 -83.05 43.19 C-83.06 55.13 -77.71 65.89 -69.69 74.59 C-59.98 83.55 -47.45 87.22 -34.46 86.91 C-29.34 86.27 -24.99 84.63 -20.3 82.53 C-17.69 81.44 -17.69 81.44 -14.69 81.44 C-14.69 85.07 -14.69 88.7 -14.69 92.44 C-28.97 98.26 -44.89 100.25 -59.6 94.25 C-74.91 87.12 -85.65 76.24 -91.69 60.44 C-92.01 59.66 -92.33 58.88 -92.66 58.08 C-97.06 45.92 -95.75 30.91 -90.5 19.27 C-87 11.94 -82.51 6.09 -76.69 0.44 C-76.15 -0.12 -75.61 -0.68 -75.05 -1.26 C-53.87 -21.59 -21.38 -17.24 0 0 Z " fill="#00C9E0" transform="translate(138.6875,55.5625)"/>
<path d="M0 0 C6.93 0 13.86 0 21 0 C21 6.6 21 13.2 21 20 C22.32 19.67 23.64 19.34 25 19 C34.85 17.72 42.33 20.72 50.17 26.64 C55.15 31.19 58.45 36.88 59.35 43.61 C59.46 46.47 59.45 49.3 59.39 52.16 C59.38 53.19 59.38 54.22 59.37 55.28 C59.35 58.54 59.3 61.8 59.25 65.06 C59.23 67.29 59.21 69.51 59.2 71.73 C59.15 77.16 59.08 82.58 59 88 C52.4 88 45.8 88 39 88 C38.97 84.94 38.95 81.88 38.92 78.73 C38.88 75.77 38.84 72.81 38.79 69.85 C38.76 67.79 38.74 65.73 38.73 63.67 C38.71 60.71 38.66 57.76 38.61 54.8 C38.61 53.88 38.61 52.96 38.61 52.01 C38.52 46.89 38.52 46.89 36.18 42.45 C33.05 40.37 30.75 40 27 40 C24.13 41.26 24.13 41.26 22 44 C21.24 47.33 21.28 50.61 21.29 54.02 C21.28 54.99 21.26 55.96 21.25 56.96 C21.2 60.06 21.2 63.15 21.19 66.25 C21.16 68.35 21.14 70.45 21.11 72.55 C21.04 77.7 21.02 82.85 21 88 C14.07 88 7.14 88 0 88 C0 58.96 0 29.92 0 0 Z " fill="#F9F9F9" transform="translate(437,43)"/>
<path d="M0 0 C8.84 5.39 14.55 12.73 17.41 22.68 C18.78 30.39 18.3 38.32 18.19 46.12 C18.17 47.96 18.16 49.79 18.15 51.62 C18.12 56.08 18.06 60.54 18 65 C11.4 65 4.8 65 -2 65 C-2.03 62.33 -2.05 59.65 -2.08 56.9 C-2.12 54.3 -2.16 51.7 -2.21 49.09 C-2.24 47.29 -2.26 45.49 -2.27 43.69 C-2.29 41.09 -2.34 38.5 -2.39 35.9 C-2.39 35.1 -2.39 34.3 -2.39 33.47 C-2.55 27.31 -4.38 23.62 -8.81 19.19 C-13.08 16.87 -16.9 16.83 -21.62 17.56 C-25.62 19.26 -28.01 21.18 -30 25 C-31.33 29.01 -31.7 32.34 -30.04 36.29 C-27.98 39.73 -26.38 41.75 -23 44 C-20.39 44.28 -20.39 44.28 -17.56 44.19 C-16.62 44.18 -15.67 44.17 -14.69 44.17 C-11.75 44.07 -11.75 44.07 -8 43 C-8 50.26 -8 57.52 -8 65 C-16.8 67.93 -25.88 66.01 -34 62 C-43.14 56.79 -48.04 48.57 -51.31 38.76 C-53.53 29.9 -51.95 21.27 -47.52 13.36 C-36.74 -3.08 -17.96 -9.24 0 0 Z " fill="#FAFAFA" transform="translate(555,66)"/>
<path d="M0 0 C7.3 5.87 13.86 13.17 15.23 22.78 C15.33 25.39 15.33 27.98 15.27 30.6 C15.26 31.54 15.25 32.48 15.25 33.45 C15.23 36.43 15.18 39.4 15.12 42.38 C15.1 44.41 15.09 46.44 15.07 48.47 C15.03 53.42 14.95 58.36 14.88 63.31 C8.27 63.31 1.68 63.31 -5.12 63.31 C-5.15 60.57 -5.18 57.82 -5.2 54.99 C-5.24 52.32 -5.29 49.65 -5.33 46.98 C-5.36 45.13 -5.38 43.28 -5.4 41.43 C-5.42 38.76 -5.46 36.1 -5.52 33.43 C-5.52 32.61 -5.52 31.79 -5.52 30.94 C-5.65 25.62 -6.59 22.52 -10.12 18.31 C-14.5 15.39 -17.91 14.67 -23.12 15.31 C-27.16 16.78 -29.58 18.54 -32.06 22.06 C-33.42 26.23 -33.54 28.93 -33.12 33.31 C-31.74 36.13 -31.74 36.13 -30.12 38.31 C-30.12 38.97 -30.12 39.63 -30.12 40.31 C-26.43 42.01 -23.56 42.56 -19.5 42.5 C-18.09 42.49 -18.09 42.49 -16.65 42.48 C-14 42.41 -14 42.41 -11.12 41.31 C-11.12 48.57 -11.12 55.83 -11.12 63.31 C-18.77 65.86 -26.85 64.4 -34.12 61.31 C-44.32 55.88 -50.25 48.42 -53.71 37.46 C-55.44 28.49 -54.91 19.18 -50.12 11.31 C-44.46 3.41 -37.25 -2.86 -27.65 -5.32 C-17.04 -6.86 -9.31 -5.03 0 0 Z " fill="#FBFBFB" transform="translate(272.125,67.6875)"/>
<path d="M0 0 C7.33 3.99 12.47 10.36 15.25 18.2 C16.55 22.94 16.43 27.61 16.38 32.5 C16.37 33.46 16.37 34.43 16.37 35.43 C16.36 38.49 16.33 41.56 16.3 44.62 C16.29 46.71 16.29 48.8 16.28 50.89 C16.26 55.99 16.22 61.09 16.18 66.19 C9.25 66.19 2.32 66.19 -4.82 66.19 C-4.86 63.13 -4.9 60.07 -4.93 56.92 C-4.98 53.96 -5.03 51 -5.08 48.04 C-5.12 45.98 -5.14 43.92 -5.17 41.86 C-5.2 38.9 -5.25 35.94 -5.31 32.98 C-5.31 32.06 -5.32 31.14 -5.33 30.2 C-5.42 25.2 -5.42 25.2 -7.24 20.62 C-9.09 18.94 -10.22 18.47 -12.7 18.12 C-13.35 18.01 -14.01 17.9 -14.69 17.78 C-18.3 18.47 -19.59 20.33 -21.82 23.19 C-22.56 26.48 -22.54 29.71 -22.53 33.08 C-22.54 34.03 -22.56 34.98 -22.57 35.95 C-22.62 38.97 -22.62 41.98 -22.63 45 C-22.66 47.05 -22.68 49.1 -22.71 51.15 C-22.78 56.16 -22.8 61.17 -22.82 66.19 C-29.42 66.19 -36.02 66.19 -42.82 66.19 C-42.91 59.82 -42.99 53.45 -43.04 47.08 C-43.06 44.92 -43.09 42.76 -43.12 40.6 C-43.17 37.47 -43.19 34.35 -43.21 31.23 C-43.23 30.27 -43.25 29.32 -43.27 28.33 C-43.28 20.59 -41.52 13.94 -36.96 7.6 C-26.4 -2.4 -13.82 -6.36 0 0 Z " fill="#F8F8F8" transform="translate(338.8203125,64.8125)"/>
<path d="M0 0 C7.99 5.99 14.47 14.85 16.39 24.79 C16.48 27.37 16.51 29.92 16.5 32.5 C16.5 33.27 16.5 34.04 16.5 34.83 C16.5 37.37 16.49 39.92 16.48 42.46 C16.48 44.23 16.48 45.99 16.48 47.76 C16.48 52.4 16.47 57.04 16.46 61.69 C16.45 66.42 16.44 71.16 16.44 75.9 C16.42 85.2 16.41 94.49 16.39 103.79 C9.76 103.91 9.76 103.91 6.39 102.79 C6.38 101.88 6.37 100.97 6.37 100.04 C6.31 91.46 6.24 82.89 6.15 74.31 C6.11 69.9 6.07 65.49 6.04 61.08 C6.01 56.82 5.97 52.56 5.92 48.3 C5.91 46.68 5.9 45.06 5.89 43.45 C5.84 31.69 5.43 21.29 -3.11 12.2 C-9.93 5.77 -17.4 4.18 -26.62 4.44 C-34.04 5.31 -40.44 8.38 -45.61 13.79 C-51.45 22.64 -52.89 30.71 -51.22 41.26 C-49.27 48.35 -44.58 54.14 -38.49 58.21 C-31.4 61.93 -23.01 63.4 -15.21 61.07 C-9.39 58.6 -4.1 55.28 0.39 50.79 C0.39 55.74 0.39 60.69 0.39 65.79 C-10.85 72.36 -21.88 74.79 -34.78 72.14 C-44.96 68.79 -54 61.58 -59.05 52.08 C-63.88 41.83 -65.72 31.13 -62.05 20.1 C-56.91 7.83 -48.58 -0.57 -36.24 -5.71 C-23.51 -9.8 -11.04 -7.03 0 0 Z " fill="#F900F9" transform="translate(123.61328125,64.2109375)"/>
<path d="M0 0 C8.58 0 17.16 0 26 0 C26 22.11 26 44.22 26 67 C17.42 67 8.84 67 0 67 C0 44.89 0 22.78 0 0 Z " fill="#FAFAFA" transform="translate(829,64)"/>
<path d="M0 0 C6.6 0 13.2 0 20 0 C20 21.45 20 42.9 20 65 C13.4 65 6.8 65 0 65 C0 43.55 0 22.1 0 0 Z " fill="#FEFEFE" transform="translate(687,66)"/>
<path d="M0 0 C4.06 2.35 7.27 4.5 8.89 9.05 C9.56 14.1 9.46 17.87 7.2 22.48 C4.06 25.96 2.09 27.77 -2.67 28.36 C-7.26 28.56 -10.41 28.38 -14.61 26.42 C-18.68 22.56 -20.26 19.1 -20.55 13.55 C-20.37 9.03 -19.2 6.45 -16.11 3.05 C-11.21 -0.85 -6.06 -2.73 0 0 Z " fill="#050505" transform="translate(401.11328125,82.953125)"/>
<path d="M0 0 C3.75 1.66 5.82 3.56 8 7 C8.81 11.07 8.95 15.24 6.95 18.95 C4.55 21.88 2.6 23.83 -1.21 24.24 C-8.22 24.44 -8.22 24.44 -12 22.31 C-15.09 18.74 -15.89 16.2 -16.31 11.5 C-15.97 7.68 -15.39 5.96 -13 3 C-8.95 -0.36 -5.06 -0.76 0 0 Z " fill="#FBFBFB" transform="translate(846,36)"/>
<path d="M0 0 C3.77 2.07 7.01 4.12 9 8 C9.58 13.22 8.81 16.58 6 21 C2.26 24.4 -0.61 24.56 -5.52 24.43 C-9.58 23.73 -11.26 22.03 -14 19 C-15.24 15.27 -15.66 11.87 -15 8 C-11.62 1.82 -6.92 -0.83 0 0 Z " fill="#F9F9F9" transform="translate(700,36)"/>
<path d="M0 0 C0.66 0.33 1.32 0.66 2 1 C0.68 2.32 -0.64 3.64 -2 5 C-2.66 4.67 -3.32 4.34 -4 4 C-2.68 2.68 -1.36 1.36 0 0 Z " fill="#151515" transform="translate(645,83)"/>
</svg>
