<?xml version="1.0" encoding="UTF-8"?>
<!-- Generator: visioncortex VTracer 0.6.4 -->
<svg version="1.1" xmlns="http://www.w3.org/2000/svg" width="512" height="512">
  <path
    d="M0 0 C168.96 0 337.92 0 512 0 C512 168.96 512 337.92 512 512 C343.04 512 174.08 512 0 512 C0 343.04 0 174.08 0 0 Z "
    fill="#000100" transform="translate(0,0)" />
  <path
    d="M0 0 C0.69 0 1.37 0 2.08 0 C17.69 0.04 31.78 1.75 46.81 6.19 C48.34 6.6 48.34 6.6 49.9 7.02 C71.26 13.04 91.52 23.34 108.81 37.19 C109.7 37.87 110.59 38.56 111.5 39.26 C124.3 49.34 135.24 61.05 144.81 74.19 C145.43 75.01 145.43 75.01 146.06 75.86 C163.01 98.75 171.98 125.42 176.81 153.19 C176.98 154.07 177.15 154.95 177.33 155.85 C177.86 159.52 177.95 163.09 177.93 166.78 C177.93 167.9 177.93 167.9 177.94 169.04 C177.94 171.52 177.93 174 177.93 176.48 C177.93 178.27 177.93 180.05 177.93 181.84 C177.93 186.67 177.92 191.51 177.91 196.35 C177.91 201.4 177.91 206.46 177.91 211.52 C177.9 221.09 177.89 230.66 177.88 240.23 C177.87 251.13 177.87 262.03 177.86 272.93 C177.85 295.35 177.83 317.77 177.81 340.19 C172.75 340.34 168.31 339.82 163.38 338.69 C162.14 338.41 160.9 338.13 159.63 337.84 C158.7 337.63 157.77 337.41 156.81 337.19 C156.81 336.32 156.81 335.44 156.81 334.55 C156.77 313.25 156.71 291.95 156.63 270.66 C156.59 260.36 156.56 250.06 156.54 239.76 C156.53 230.77 156.5 221.79 156.46 212.8 C156.44 208.05 156.42 203.3 156.42 198.55 C156.43 170.15 156.43 170.15 151.81 142.19 C151.51 140.81 151.2 139.44 150.9 138.07 C144.72 110.7 128.87 87.21 109.81 67.19 C108.92 66.22 108.92 66.22 108.02 65.23 C82.03 37.76 41.19 23.37 4.24 21.83 C-37.54 20.91 -77.55 36.1 -108.04 64.76 C-137.88 93.52 -155.72 131.93 -156.54 173.5 C-156.79 212.5 -145.44 250.68 -119.19 280.19 C-118.47 281.02 -117.75 281.86 -117.02 282.72 C-100.99 301.11 -80.71 314.94 -58.19 324.19 C-57.36 324.53 -56.52 324.88 -55.67 325.23 C-50.15 327.38 -44.56 328.94 -38.81 330.31 C-37.82 330.55 -37.82 330.55 -36.82 330.79 C-24.57 333.6 -12.64 334.59 -0.12 334.56 C0.64 334.56 1.41 334.56 2.2 334.56 C15.91 334.55 28.41 332.95 41.61 329.07 C49.18 326.98 55.71 328.69 63.2 330.39 C68.37 331.53 73.58 332.36 78.81 333.19 C80.81 333.52 82.81 333.85 84.81 334.19 C84.81 334.85 84.81 335.51 84.81 336.19 C81.21 337.78 77.61 339.36 74 340.94 C73 341.38 71.99 341.82 70.96 342.28 C62.01 346.19 52.99 349.75 43.56 352.31 C42.44 352.62 41.32 352.94 40.17 353.26 C26.88 356.33 13.5 356.63 -0.06 356.62 C-1.48 356.63 -1.48 356.63 -2.93 356.63 C-18.23 356.6 -32.43 355.51 -47.19 351.19 C-48.57 350.79 -48.57 350.79 -49.99 350.39 C-62.05 346.89 -73.19 342.22 -84.19 336.19 C-84.8 335.86 -85.41 335.54 -86.03 335.2 C-126.5 313.52 -155.71 276.34 -170.19 233.19 C-170.59 232.01 -170.99 230.84 -171.4 229.62 C-175.84 215.96 -178.28 201.91 -178.43 187.55 C-178.44 186.76 -178.45 185.96 -178.46 185.15 C-178.83 147.41 -171.43 113.05 -150.19 81.19 C-149.63 80.34 -149.63 80.34 -149.06 79.48 C-143.3 70.88 -136.91 63.17 -129.7 55.75 C-128.23 54.23 -126.77 52.68 -125.32 51.13 C-93.14 17.28 -46.08 -0.08 0 0 Z "
    fill="#DDFB00" transform="translate(251.1875,76.8125)" />
  <path
    d="M0 0 C2.98 2.67 5.87 5.43 8.75 8.21 C9.47 8.87 10.19 9.54 10.93 10.22 C35.27 33.4 50.42 68.78 51.93 102.18 C52.02 106.56 52 110.93 51.98 115.31 C51.98 116.98 51.98 118.64 51.98 120.31 C51.98 124.79 51.97 129.27 51.96 133.75 C51.94 138.45 51.94 143.15 51.94 147.85 C51.93 156.73 51.92 165.61 51.9 174.48 C51.88 184.6 51.86 194.72 51.85 204.83 C51.83 225.62 51.8 246.42 51.75 267.21 C46.69 267.36 42.25 266.83 37.32 265.71 C36.08 265.43 34.84 265.15 33.57 264.86 C32.64 264.65 31.71 264.43 30.75 264.21 C30.75 262.98 30.75 262.98 30.74 261.73 C30.66 241.81 30.57 221.88 30.47 201.96 C30.42 192.32 30.37 182.69 30.33 173.05 C30.3 164.65 30.26 156.24 30.21 147.84 C30.19 143.39 30.16 138.95 30.15 134.5 C30.14 130.31 30.12 126.12 30.09 121.92 C30.08 120.39 30.07 118.86 30.07 117.33 C30.01 81.6 18.07 48.53 -7.12 22.83 C-32.12 -1.71 -64.2 -12.09 -98.59 -12.25 C-117 -12.02 -134.98 -7.44 -151.25 1.21 C-151.88 1.54 -152.51 1.87 -153.16 2.22 C-162.82 7.45 -171.17 13.78 -179.25 21.21 C-180.13 22.01 -181.01 22.81 -181.93 23.64 C-197.37 38.31 -208.96 58.6 -214.25 79.21 C-214.44 79.96 -214.63 80.7 -214.83 81.47 C-219.08 98.55 -219.5 114.91 -216.25 132.21 C-216.1 133.55 -216.1 133.55 -215.95 134.93 C-213.56 155.22 -202.63 176.01 -189.25 191.21 C-188.57 192.01 -187.9 192.82 -187.2 193.65 C-166.89 217.29 -136.31 233.06 -105.14 235.44 C-85.94 236.27 -67.05 234.63 -49.24 226.99 C-47.25 226.21 -47.25 226.21 -45.25 226.21 C-45.25 233.8 -45.25 241.39 -45.25 249.21 C-61.7 254.46 -76.04 257.4 -93.42 257.45 C-95.41 257.46 -97.4 257.49 -99.4 257.52 C-108.78 257.56 -117.16 256.37 -126.25 254.21 C-127.53 253.91 -128.81 253.61 -130.14 253.3 C-166.28 244.59 -198.54 220.8 -218.03 189.21 C-228.65 171.69 -236.29 152.56 -239.25 132.21 C-239.43 131.02 -239.61 129.84 -239.79 128.62 C-243.51 97.7 -236.98 68.31 -222.25 41.21 C-221.41 39.64 -221.41 39.64 -220.57 38.04 C-206.8 13.13 -185.09 -5.54 -160.25 -18.79 C-159.39 -19.26 -158.53 -19.73 -157.64 -20.22 C-108.09 -46.33 -41.68 -36.39 0 0 Z "
    fill="#02FB15" transform="translate(345.24609375,143.79296875)" />
  <path
    d="M0 0 C1.8 1.56 3.56 3.14 5.31 4.75 C5.83 5.22 6.35 5.7 6.88 6.19 C26.41 24.32 40.05 47.99 43.31 74.75 C43.4 77.12 43.43 79.49 43.43 81.86 C43.43 82.88 43.43 82.88 43.44 83.92 C43.44 86.17 43.43 88.43 43.43 90.69 C43.43 92.32 43.43 93.94 43.43 95.57 C43.43 99.97 43.42 104.38 43.41 108.78 C43.41 113.38 43.41 117.99 43.41 122.6 C43.4 131.31 43.39 140.03 43.38 148.74 C43.37 158.67 43.37 168.59 43.36 178.52 C43.35 198.93 43.33 219.34 43.31 239.75 C38.25 239.91 33.81 239.38 28.88 238.25 C27.64 237.97 26.4 237.69 25.13 237.41 C23.73 237.08 23.73 237.08 22.31 236.75 C22.31 235.94 22.31 235.14 22.31 234.3 C22.3 214.59 22.25 194.87 22.18 175.15 C22.15 165.61 22.12 156.08 22.12 146.54 C22.11 138.22 22.09 129.9 22.05 121.58 C22.03 117.19 22.02 112.79 22.03 108.39 C22.08 75.2 17.79 49.11 -5.88 24.06 C-16.93 13.34 -30.89 5.9 -45.69 1.75 C-46.66 1.47 -47.62 1.19 -48.62 0.9 C-71.32 -4.85 -95.62 -1.2 -115.8 10.56 C-139.36 25.7 -154.06 45.84 -160.23 73.15 C-164.47 97.2 -158.21 122.99 -144.69 143.1 C-129.96 162.6 -110.62 174.86 -86.91 180.4 C-64.52 182.84 -42.16 180.63 -22.69 168.75 C-22.03 168.75 -21.37 168.75 -20.69 168.75 C-20.69 176.67 -20.69 184.59 -20.69 192.75 C-47.97 205.39 -78.92 208.07 -107.51 197.6 C-119.69 192.86 -130.71 187.26 -140.69 178.75 C-141.54 178.03 -142.4 177.31 -143.29 176.57 C-164.13 158.46 -179.21 133.51 -182.69 105.75 C-183.71 87.71 -183.58 70 -177.69 52.75 C-177.47 52.1 -177.25 51.45 -177.02 50.78 C-172.01 36.53 -163.29 23.42 -152.69 12.75 C-151.82 11.86 -150.95 10.98 -150.06 10.06 C-149.28 9.3 -148.5 8.54 -147.69 7.75 C-147.25 7.25 -146.81 6.76 -146.36 6.25 C-109.74 -33.7 -40.6 -31.99 0 0 Z "
    fill="#00CBE2" transform="translate(320.6875,165.25)" />
  <path
    d="M0 0 C1.19 -0.01 2.37 -0.02 3.59 -0.04 C14.43 0 24.24 2.13 34.12 6.56 C35.14 7.01 35.14 7.01 36.17 7.47 C42.4 10.34 47.75 14.05 53.06 18.38 C53.68 18.83 54.3 19.29 54.94 19.76 C69.28 30.85 78.73 50.15 81.6 67.65 C82.04 71.16 82.19 74.49 82.18 78.03 C82.18 79.97 82.18 79.97 82.19 81.96 C82.18 83.38 82.18 84.79 82.18 86.21 C82.18 87.72 82.18 89.23 82.18 90.74 C82.18 94.82 82.17 98.9 82.16 102.98 C82.16 107.25 82.16 111.52 82.16 115.79 C82.15 123.87 82.14 131.94 82.13 140.02 C82.12 149.22 82.12 158.42 82.11 167.62 C82.1 186.54 82.08 205.46 82.06 224.38 C77 224.53 72.56 224 67.62 222.88 C66.39 222.6 65.15 222.32 63.88 222.03 C62.95 221.81 62.02 221.6 61.06 221.38 C61.06 220.62 61.06 219.86 61.06 219.09 C61.02 200.66 60.96 182.24 60.88 163.82 C60.84 154.91 60.81 146 60.79 137.09 C60.78 129.32 60.75 121.55 60.71 113.78 C60.69 109.67 60.67 105.56 60.67 101.45 C60.67 97.57 60.65 93.69 60.62 89.81 C60.61 88.4 60.61 86.99 60.62 85.57 C60.68 67.91 55.45 51.34 43.06 38.38 C26.98 24.53 10.69 21.15 -9.91 22.58 C-23.32 24.38 -36.22 32.61 -44.96 42.71 C-55.12 56.4 -59.28 70.59 -57.94 87.38 C-57.28 91.52 -56.25 95.4 -54.94 99.38 C-54.54 100.65 -54.54 100.65 -54.13 101.95 C-51.65 108.98 -47.61 114.61 -42.94 120.38 C-42.15 121.35 -42.15 121.35 -41.36 122.34 C-32.6 132.1 -17.68 138.97 -4.73 139.68 C-0.45 139.8 3.79 139.65 8.06 139.38 C9.53 139.29 9.53 139.29 11.03 139.2 C23.94 137.6 36.39 129.77 45.06 120.38 C45.6 119.63 46.14 118.88 46.7 118.11 C47.15 117.54 47.6 116.96 48.06 116.38 C48.72 116.38 49.38 116.38 50.06 116.38 C50.31 120.38 50.49 124.37 50.61 128.38 C50.66 129.74 50.73 131.1 50.82 132.46 C51.52 143.65 51.52 143.65 48.05 147.76 C45.47 149.62 42.95 151.03 40.06 152.38 C39.39 152.72 38.72 153.06 38.03 153.41 C36.29 154.24 34.49 154.93 32.69 155.62 C31.52 156.08 30.36 156.54 29.16 157.02 C19.7 160.3 10.77 161.91 0.75 161.81 C-0.34 161.8 -1.44 161.79 -2.56 161.79 C-21.5 161.38 -38.96 154.2 -52.94 141.38 C-53.69 140.71 -54.45 140.05 -55.23 139.36 C-70 125.63 -79.19 105.08 -80.25 84.96 C-80.88 61.12 -72.95 40.11 -56.5 22.75 C-40.64 8.05 -21.68 -0.21 0 0 Z "
    fill="#FB00FB" transform="translate(249.9375,174.625)" />
  <path
    d="M0 0 C0.66 0.33 1.32 0.66 2 1 C-3.92 8.08 -10.43 14.53 -17 21 C-17.99 20.67 -18.98 20.34 -20 20 C-13.4 13.4 -6.8 6.8 0 0 Z "
    fill="#D8F000" transform="translate(135,119)" />
  <path
    d="M0 0 C0.66 0.33 1.32 0.66 2 1 C-3.34 7.33 -9.09 13.2 -15 19 C-15.99 18.67 -16.98 18.34 -18 18 C-13.52 12.74 -8.95 7.87 -3.66 3.41 C-1.9 1.95 -1.9 1.95 0 0 Z "
    fill="#00C5DB" transform="translate(180,166)" />
  <path
    d="M0 0 C4.29 0.33 8.58 0.66 13 1 C13 1.66 13 2.32 13 3 C13.99 3.33 14.98 3.66 16 4 C10.4 3.58 5.28 3.08 0 1 C0 0.67 0 0.34 0 0 Z "
    fill="#BED400" transform="translate(269,98)" />
  <path d="M0 0 C1.98 0.99 1.98 0.99 4 2 C4 2.99 4 3.98 4 5 C2 3.62 2 3.62 0 2 C0 1.34 0 0.68 0 0 Z " fill="#00B4C8"
    transform="translate(314,187)" />
</svg>